<?xml version="1.0" encoding="utf-8"?>
<!-- Generator: Adobe Illustrator 25.0.0, SVG Export Plug-In . SVG Version: 6.00 Build 0)  -->
<svg version="1.1" id="Camada_1" xmlns="http://www.w3.org/2000/svg" xmlns:xlink="http://www.w3.org/1999/xlink" x="0px" y="0px"
	 viewBox="0 0 1920 1080" style="enable-background:new 0 0 1920 1080;" xml:space="preserve">
<style type="text/css">
	.st0{fill:#0F0F0F;}
	.st1{fill:url(#SVGID_1_);}
	.st2{fill:url(#SVGID_2_);}
	.st3{fill:url(#SVGID_3_);}
	.st4{fill:url(#SVGID_4_);}
	.st5{fill:#FFFFFF;}
	.st6{opacity:0.43;}
	.st7{opacity:0.25;fill:url(#SVGID_5_);enable-background:new    ;}
	.st8{opacity:0.25;fill:url(#SVGID_6_);enable-background:new    ;}
	.st9{opacity:0.25;fill:url(#SVGID_7_);enable-background:new    ;}
	.st10{opacity:0.25;fill:url(#SVGID_8_);enable-background:new    ;}
	.st11{opacity:0.25;fill:url(#SVGID_9_);enable-background:new    ;}
	.st12{opacity:0.25;fill:url(#SVGID_10_);enable-background:new    ;}
	.st13{fill:url(#SVGID_11_);}
	.st14{fill:url(#SVGID_12_);}
	.st15{fill:url(#SVGID_13_);}
	.st16{fill:url(#SVGID_14_);}
	.st17{fill:url(#SVGID_15_);}
	.st18{fill:url(#SVGID_16_);}
	.st19{fill:url(#SVGID_17_);}
	.st20{fill:url(#SVGID_18_);}
	.st21{fill:url(#SVGID_19_);}
</style>
<g id="Camada_1_1_">
	<g>
		<rect x="0.5" y="0.5" class="st0" width="1919" height="1079"/>
		<path class="st0" d="M1919,1v1078H1V1H1919 M1920,0H0v1080h1920V0L1920,0z"/>
	</g>
	<g>
		
			<radialGradient id="SVGID_1_" cx="429.5447" cy="89.1471" r="235.7022" gradientTransform="matrix(3.1983 0 0 2.8523 -944.5455 -82.9434)" gradientUnits="userSpaceOnUse">
			<stop  offset="4.042364e-03" style="stop-color:#662D91"/>
			<stop  offset="1" style="stop-color:#000000;stop-opacity:0"/>
		</radialGradient>
		<ellipse class="st1" cx="429.3" cy="171.3" rx="753.8" ry="672.3"/>
		
			<radialGradient id="SVGID_2_" cx="636.4092" cy="47.7042" r="526.7379" gradientTransform="matrix(1.3048 0 0 1.2823 -401.1189 110.1577)" gradientUnits="userSpaceOnUse">
			<stop  offset="0" style="stop-color:#00FFFF"/>
			<stop  offset="1" style="stop-color:#000000;stop-opacity:0"/>
		</radialGradient>
		<path class="st2" d="M429.3-500.2c51.1,0,102.2,4.6,151.8,13.6c48.4,8.8,95.9,22,141.4,39.1c44.6,16.8,87.7,37.7,127.9,61.9
			c39.9,24,77.4,51.6,111.4,82c34.1,30.4,65,63.8,91.9,99.4c27.2,35.9,50.5,74.3,69.4,114.1c19.2,40.5,34,82.9,43.9,126
			c10.2,44.2,15.3,89.8,15.3,135.3s-5.1,91.1-15.3,135.3c-9.9,43.1-24.7,85.5-43.9,126c-18.9,39.8-42.2,78.2-69.4,114.1
			c-26.9,35.6-57.9,69-91.9,99.4c-34.1,30.4-71.6,58-111.4,82c-40.3,24.3-83.3,45.1-127.9,61.9c-45.4,17.1-93,30.3-141.4,39.1
			c-49.6,9.1-100.7,13.6-151.8,13.6s-102.2-4.6-151.8-13.6c-48.4-8.8-95.9-22-141.4-39.1c-44.6-16.8-87.7-37.7-127.9-61.9
			c-39.9-24-77.4-51.6-111.4-82c-34.1-30.4-65-63.8-91.9-99.4c-27.2-35.9-50.5-74.3-69.4-114.1c-19.2-40.5-34-82.9-43.9-126
			c-10.2-44.2-15.3-89.8-15.3-135.3s5.1-91.1,15.3-135.3c9.9-43.1,24.7-85.5,43.9-126c18.9-39.8,42.2-78.2,69.4-114.1
			c26.9-35.6,57.9-69,91.9-99.4s71.6-58,111.4-82c40.3-24.3,83.3-45.1,127.9-61.9c45.4-17.1,93-30.3,141.4-39.1
			C327.1-495.6,378.2-500.2,429.3-500.2 M429.3-501c-416.3,0-753.8,301-753.8,672.3S12.9,843.6,429.3,843.6s753.8-301,753.8-672.3
			S845.6-501,429.3-501L429.3-501z"/>
	</g>
	<g>
		
			<radialGradient id="SVGID_3_" cx="122.8703" cy="204.023" r="287.947" gradientTransform="matrix(2.4512 0 0 2.2243 -416.4908 -150.5857)" gradientUnits="userSpaceOnUse">
			<stop  offset="0" style="stop-color:#00FFFF"/>
			<stop  offset="1" style="stop-color:#000000;stop-opacity:0"/>
		</radialGradient>
		<ellipse class="st3" cx="-115.3" cy="303.2" rx="705.8" ry="640.5"/>
		
			<radialGradient id="SVGID_4_" cx="-115.3112" cy="272.2405" r="673.9471" gradientTransform="matrix(1 0 0 0.9074 0 56.1916)" gradientUnits="userSpaceOnUse">
			<stop  offset="0" style="stop-color:#00FFFF"/>
			<stop  offset="1" style="stop-color:#000000;stop-opacity:0"/>
		</radialGradient>
		<path class="st4" d="M-115.3-336.5c47.8,0,95.7,4.4,142.1,13c45.3,8.4,89.8,20.9,132.4,37.3c41.8,16,82.1,35.9,119.8,59
			c37.3,22.9,72.4,49.2,104.3,78.1c31.9,28.9,60.9,60.8,86.1,94.7c25.5,34.2,47.3,70.8,65,108.7c18,38.6,31.8,79,41.1,120.1
			c9.5,42.1,14.3,85.5,14.3,128.9s-4.8,86.8-14.3,128.9c-9.3,41.1-23.1,81.5-41.1,120.1c-17.7,37.9-39.5,74.5-65,108.7
			c-25.2,33.9-54.2,65.7-86.1,94.7s-67,55.2-104.3,78.1c-37.7,23.1-78,43-119.8,59c-42.6,16.3-87.1,28.9-132.4,37.3
			c-46.5,8.6-94.3,13-142.1,13s-95.7-4.4-142.1-13c-45.3-8.4-89.8-20.9-132.4-37.3c-41.8-16-82.1-35.9-119.8-59
			c-37.3-22.9-72.4-49.2-104.3-78.1c-31.9-28.9-60.9-60.8-86.1-94.7c-25.5-34.2-47.3-70.8-65-108.7c-18-38.6-31.8-79-41.1-120.1
			c-9.5-42.1-14.3-85.5-14.3-128.9s4.8-86.8,14.3-128.9c9.3-41.1,23.1-81.5,41.1-120.1c17.7-37.9,39.5-74.5,65-108.7
			c25.2-33.9,54.2-65.7,86.1-94.7c31.9-29,67-55.2,104.3-78.1c37.7-23.1,78-43,119.8-59c42.6-16.3,87.1-28.9,132.4-37.3
			C-211-332.1-163.2-336.5-115.3-336.5 M-115.3-337.3c-389.8,0-705.8,286.7-705.8,640.5s316,640.5,705.8,640.5
			S590.5,657,590.5,303.2S274.5-337.3-115.3-337.3L-115.3-337.3z"/>
	</g>
	<g>
		<g>
			<path class="st5" d="M1167.1,217.2c1.9,0,1.9-3,0-3C1165.2,214.2,1165.2,217.2,1167.1,217.2L1167.1,217.2z"/>
		</g>
	</g>
	<g>
		<g>
			<path class="st5" d="M175.6,290.7c1.9,0,1.9-3,0-3S173.7,290.7,175.6,290.7L175.6,290.7z"/>
		</g>
	</g>
	<g>
		<g>
			<path class="st5" d="M385.2,843.6c1.9,0,1.9-3,0-3S383.2,843.6,385.2,843.6L385.2,843.6z"/>
		</g>
	</g>
	<g>
		<g>
			<path class="st5" d="M1326.9,482.9c1.9,0,1.9-3,0-3S1325,482.9,1326.9,482.9L1326.9,482.9z"/>
		</g>
	</g>
	<g>
		<g>
			<path class="st5" d="M948.9,685.9c1.9,0,1.9-3,0-3S947,685.9,948.9,685.9L948.9,685.9z"/>
		</g>
	</g>
	<g>
		<g>
			<path class="st5" d="M994.3,968.9c1.9,0,1.9-3,0-3C992.3,965.9,992.3,968.9,994.3,968.9L994.3,968.9z"/>
		</g>
	</g>
	<g>
		<g>
			<path class="st5" d="M1054.8,25c1.9,0,1.9-3,0-3S1052.8,25,1054.8,25L1054.8,25z"/>
		</g>
	</g>
	<g class="st6">
		<g>
			<path class="st5" d="M1136.8,140.1c8.4,0,8.4-13,0-13C1128.5,127.1,1128.5,140.1,1136.8,140.1L1136.8,140.1z"/>
		</g>
	</g>
	<g class="st6">
		<g>
			<path class="st5" d="M1067.8,557.1c8.4,0,8.4-13,0-13C1059.5,544.1,1059.5,557.1,1067.8,557.1L1067.8,557.1z"/>
		</g>
	</g>
	<g class="st6">
		<g>
			<path class="st5" d="M1273.8,995.1c8.4,0,8.4-13,0-13C1265.5,982.1,1265.5,995.1,1273.8,995.1L1273.8,995.1z"/>
		</g>
	</g>
	<g class="st6">
		<g>
			<path class="st5" d="M679.8,880.1c8.4,0,8.4-13,0-13C671.5,867.1,671.5,880.1,679.8,880.1L679.8,880.1z"/>
		</g>
	</g>
	<g class="st6">
		<g>
			<path class="st5" d="M302.8,774.1c8.4,0,8.4-13,0-13C294.5,761.1,294.5,774.1,302.8,774.1L302.8,774.1z"/>
		</g>
	</g>
	<g class="st6">
		<g>
			<path class="st5" d="M510.8,281.1c8.4,0,8.4-13,0-13C502.5,268.1,502.5,281.1,510.8,281.1L510.8,281.1z"/>
		</g>
	</g>
	<linearGradient id="SVGID_5_" gradientUnits="userSpaceOnUse" x1="744.5" y1="162.4927" x2="1143.2181" y2="162.4927">
		<stop  offset="0" style="stop-color:#000000;stop-opacity:0"/>
		<stop  offset="1" style="stop-color:#00FFFF"/>
	</linearGradient>
	<path class="st7" d="M1143.2,133.1c-0.2-3.6-3.5-6.2-7-5.5l-391.7,69.9l393.7-58.2C1141.2,138.8,1143.4,136.2,1143.2,133.1
		L1143.2,133.1z"/>
	<linearGradient id="SVGID_6_" gradientUnits="userSpaceOnUse" x1="758" y1="579.2227" x2="1074.5968" y2="579.2227">
		<stop  offset="0" style="stop-color:#000000;stop-opacity:0"/>
		<stop  offset="1" style="stop-color:#00FFFF"/>
	</linearGradient>
	<path class="st8" d="M1074.6,549.8c-0.2-3.6-2.8-6.2-5.5-5.5L758,614.2l312.6-58.2C1073,555.6,1074.7,552.9,1074.6,549.8
		L1074.6,549.8z"/>
	<linearGradient id="SVGID_7_" gradientUnits="userSpaceOnUse" x1="1020" y1="1018.0007" x2="1279.996" y2="1018.0007">
		<stop  offset="0" style="stop-color:#000000;stop-opacity:0"/>
		<stop  offset="1" style="stop-color:#00FFFF"/>
	</linearGradient>
	<path class="st9" d="M1280,986.9c-0.1-3.8-2.3-6.5-4.5-5.8L1020,1055l256.7-61.5C1278.7,993,1280.1,990.2,1280,986.9L1280,986.9z"
		/>
	<linearGradient id="SVGID_8_" gradientUnits="userSpaceOnUse" x1="117.24" y1="303.2227" x2="515.9592" y2="303.2227">
		<stop  offset="0" style="stop-color:#000000;stop-opacity:0"/>
		<stop  offset="1" style="stop-color:#00FFFF"/>
	</linearGradient>
	<path class="st10" d="M516,273.8c-0.2-3.6-3.5-6.1-7-5.5l-391.7,69.9L510.9,280C513.9,279.6,516.1,276.9,516,273.8L516,273.8z"/>
	<linearGradient id="SVGID_9_" gradientUnits="userSpaceOnUse" x1="87" y1="795.4084" x2="308.4757" y2="795.4084">
		<stop  offset="0" style="stop-color:#000000;stop-opacity:0"/>
		<stop  offset="1" style="stop-color:#00FFFF"/>
	</linearGradient>
	<path class="st11" d="M308.5,766.4c-0.1-3.5-1.9-6.1-3.9-5.5L87,830l218.7-57.5C307.4,772,308.6,769.4,308.5,766.4L308.5,766.4z"/>
	<linearGradient id="SVGID_10_" gradientUnits="userSpaceOnUse" x1="496.01" y1="900.9992" x2="685.0034" y2="900.9992">
		<stop  offset="0" style="stop-color:#000000;stop-opacity:0"/>
		<stop  offset="1" style="stop-color:#00FFFF"/>
	</linearGradient>
	<path class="st12" d="M685,872.5c-0.1-3.5-1.6-6-3.3-5.4L496,935l186.6-56.5C684,878,685.1,875.4,685,872.5L685,872.5z"/>
</g>
<g id="Camada_2_1_">
	
		<radialGradient id="SVGID_11_" cx="1050.52" cy="717.32" r="6.2963" gradientTransform="matrix(1 0 0 -1 0 1080)" gradientUnits="userSpaceOnUse">
		<stop  offset="0" style="stop-color:#FFFFFF"/>
		<stop  offset="1" style="stop-color:#000000;stop-opacity:0"/>
	</radialGradient>
	<circle class="st13" cx="1050.5" cy="362.7" r="9.7"/>
	
		<radialGradient id="SVGID_12_" cx="1789.24" cy="179" r="9.72" gradientTransform="matrix(1 0 0 -1 0 1080)" gradientUnits="userSpaceOnUse">
		<stop  offset="0" style="stop-color:#FFFFFF"/>
		<stop  offset="1" style="stop-color:#000000;stop-opacity:0"/>
	</radialGradient>
	<circle class="st14" cx="1789.2" cy="901" r="9.7"/>
	
		<radialGradient id="SVGID_13_" cx="1188.76" cy="284.59" r="9.72" gradientTransform="matrix(1 0 0 -1 0 1080)" gradientUnits="userSpaceOnUse">
		<stop  offset="0" style="stop-color:#FFFFFF"/>
		<stop  offset="1" style="stop-color:#000000;stop-opacity:0"/>
	</radialGradient>
	<circle class="st15" cx="1188.8" cy="795.4" r="9.7"/>
	
		<radialGradient id="SVGID_14_" cx="852.88" cy="250" r="9.72" gradientTransform="matrix(1 0 0 -1 0 1080)" gradientUnits="userSpaceOnUse">
		<stop  offset="0" style="stop-color:#FFFFFF"/>
		<stop  offset="1" style="stop-color:#000000;stop-opacity:0"/>
	</radialGradient>
	<circle class="st16" cx="852.9" cy="830" r="9.7"/>
	
		<radialGradient id="SVGID_15_" cx="197.74" cy="99" r="9.72" gradientTransform="matrix(1 0 0 -1 0 1080)" gradientUnits="userSpaceOnUse">
		<stop  offset="0" style="stop-color:#FFFFFF"/>
		<stop  offset="1" style="stop-color:#000000;stop-opacity:0"/>
	</radialGradient>
	<circle class="st17" cx="197.7" cy="981" r="9.7"/>
	
		<radialGradient id="SVGID_16_" cx="177.09" cy="475.49" r="9.72" gradientTransform="matrix(1 0 0 -1 0 1080)" gradientUnits="userSpaceOnUse">
		<stop  offset="0" style="stop-color:#FFFFFF"/>
		<stop  offset="1" style="stop-color:#000000;stop-opacity:0"/>
	</radialGradient>
	<circle class="st18" cx="177.1" cy="604.5" r="9.7"/>
	
		<radialGradient id="SVGID_17_" cx="644.98" cy="387.56" r="10.3104" gradientTransform="matrix(1 0 0 -1 0 1080)" gradientUnits="userSpaceOnUse">
		<stop  offset="0" style="stop-color:#FFFFFF"/>
		<stop  offset="0.9071" style="stop-color:#000000;stop-opacity:0"/>
	</radialGradient>
	<circle class="st19" cx="644.4" cy="692.7" r="9.7"/>
	
		<radialGradient id="SVGID_18_" cx="663.84" cy="865.78" r="9.72" gradientTransform="matrix(1 0 0 -1 0 1080)" gradientUnits="userSpaceOnUse">
		<stop  offset="0" style="stop-color:#FFFFFF"/>
		<stop  offset="1" style="stop-color:#000000;stop-opacity:0"/>
	</radialGradient>
	<circle class="st20" cx="663.8" cy="214.2" r="9.7"/>
	
		<radialGradient id="SVGID_19_" cx="418.72" cy="962.58" r="9.72" gradientTransform="matrix(1 0 0 -1 0 1080)" gradientUnits="userSpaceOnUse">
		<stop  offset="0" style="stop-color:#FFFFFF"/>
		<stop  offset="1" style="stop-color:#000000;stop-opacity:0"/>
	</radialGradient>
	<circle class="st21" cx="418.7" cy="117.4" r="9.7"/>
</g>
</svg>
