<svg width="41" height="41" viewBox="0 0 41 41" fill="none" xmlns="http://www.w3.org/2000/svg">
<path d="M35.011 41C25.3712 41 15.7314 41 6.09155 41C6.00951 40.9795 5.94797 40.9385 5.86593 40.9385C2.95348 40.4055 1.08704 38.6835 0.225613 35.875C0.123062 35.5675 0.0615308 35.2395 0 34.9115C0 29.438 0 23.9645 0 18.491C0.0205103 18.409 0.0615308 18.3475 0.0615308 18.2655C0.307654 16.605 1.08704 15.2315 2.31766 14.104C6.82992 10.0245 11.3422 5.904 15.8749 1.845C16.4492 1.3325 17.1466 0.902 17.8439 0.574C18.4592 0.287 19.1361 0.1845 19.7924 0C20.2641 0 20.7564 0 21.2281 0C21.2691 0.0205 21.2896 0.041 21.3307 0.0615C22.8894 0.2665 24.2021 0.984 25.3507 2.0295C29.8424 6.109 34.3342 10.1885 38.8259 14.268C39.6463 15.0265 40.2616 15.908 40.6103 16.974C40.7744 17.4865 40.8769 17.999 41 18.5115C41 23.8825 41 29.233 41 34.604C40.9795 34.727 40.9385 34.85 40.918 34.9935C40.4462 37.6175 39.1131 39.565 36.5903 40.59C36.098 40.7745 35.5443 40.8565 35.011 41ZM20.4282 37.064C24.92 37.064 29.3912 37.064 33.8829 37.064C35.4827 37.064 36.6928 35.916 36.7134 34.358C36.7339 29.3765 36.7134 24.3745 36.7134 19.393C36.7134 18.4705 36.3237 17.6915 35.6673 17.097C31.2371 13.038 26.7659 9.0405 22.3357 4.961C21.1461 3.8745 19.4437 4.141 18.5208 4.9815C17.1671 6.191 15.8339 7.421 14.4802 8.6305C11.3217 11.5005 8.18359 14.35 5.02501 17.179C4.5943 17.5685 4.26613 17.999 4.16358 18.573C4.12256 18.9215 4.10205 19.27 4.10205 19.6185C4.10205 24.436 4.10205 29.2535 4.10205 34.071C4.10205 35.916 5.25063 37.064 7.09655 37.064C11.5268 37.064 15.9775 37.064 20.4282 37.064Z" fill="white"/>
</svg>
