<svg width="54" height="45" viewBox="0 0 54 45" fill="none" xmlns="http://www.w3.org/2000/svg">
<path d="M53.8475 36.39C53.3925 37.7283 52.4022 38.2101 51.0639 38.1298C50.5285 38.103 49.9932 38.1298 49.3508 38.1298C49.6452 38.7722 49.9129 39.3343 50.2073 39.9231C50.3144 40.1373 50.4215 40.3514 50.5018 40.5923C50.7962 41.3417 50.2609 41.9841 49.4846 41.9038C48.8958 41.8235 48.3069 41.7432 47.7448 41.6362C47.4236 41.5559 47.263 41.6897 47.1292 41.9306C46.8348 42.4392 46.5403 42.9477 46.2192 43.4563C45.7106 44.2325 44.8808 44.2057 44.4526 43.3492C43.7834 41.9574 43.1143 40.5655 42.4183 39.0934C42.3113 39.3075 42.231 39.4413 42.1507 39.6019C41.5618 40.8332 40.973 42.0912 40.3841 43.3224C40.1967 43.6972 39.9558 43.9648 39.5276 43.9916C39.0725 44.0184 38.7781 43.7775 38.564 43.4027C38.2428 42.8674 37.9484 42.3589 37.6004 41.8503C37.5201 41.7432 37.306 41.6362 37.1454 41.6362C36.5298 41.6897 35.9409 41.8235 35.352 41.9038C34.4955 42.0109 33.987 41.3417 34.3081 40.5655C34.5758 39.9499 34.897 39.3343 35.1647 38.7186C35.245 38.558 35.2985 38.3974 35.4056 38.1833C35.1111 38.1833 34.897 38.1833 34.6561 38.1833C24.137 38.1833 13.6178 38.1833 3.09864 38.1833C1.73356 38.1833 0.769969 37.7551 0.314941 36.4167C0.314941 25.0411 0.314941 13.6921 0.314941 2.31647C0.448773 2.04881 0.555838 1.75438 0.743202 1.48671C1.27853 0.710492 2.08152 0.57666 2.96481 0.57666C18.9978 0.57666 35.0308 0.57666 51.0639 0.57666C52.4289 0.57666 53.3925 1.00492 53.8475 2.31647C53.8475 13.6654 53.8475 25.0411 53.8475 36.39ZM48.1999 35.7208C48.4943 36.5773 48.4943 36.5773 49.3776 36.5773C49.9932 36.5773 50.6356 36.5773 51.2512 36.5773C52.1345 36.5773 52.2683 36.4167 52.2683 35.5335C52.2683 24.7466 52.2683 13.9598 52.2683 3.17299C52.2683 2.2897 52.1345 2.15587 51.2244 2.15587C35.1379 2.15587 19.0246 2.15587 2.93804 2.15587C2.00122 2.15587 1.86739 2.2897 1.86739 3.19976C1.86739 13.9598 1.86739 24.7466 1.86739 35.5067C1.86739 35.6138 1.86739 35.7208 1.86739 35.8279C1.86739 36.3364 2.13505 36.5506 2.61684 36.5773C2.80421 36.5773 2.96481 36.5773 3.15217 36.5773C13.9122 36.5773 24.699 36.5773 35.4591 36.5773C36.2889 36.5773 36.2889 36.5773 36.5565 35.7208C35.4056 35.1052 34.8702 34.1416 34.9238 32.8301C34.9238 32.5356 34.7632 32.1877 34.6026 31.92C34.0673 30.9564 34.094 30.0196 34.6026 29.0292C34.7899 28.6545 34.9238 28.2263 34.9238 27.798C34.9773 26.7006 35.4591 25.8976 36.3692 25.3087C36.7171 25.0946 37.0115 24.7734 37.2257 24.4522C37.8145 23.5154 38.6175 23.0604 39.7149 22.9801C40.1432 22.9533 40.5982 22.8195 40.9997 22.6321C41.9365 22.1771 42.8198 22.1771 43.7567 22.6053C44.1849 22.7927 44.6667 22.9265 45.1217 22.9801C46.1656 23.0604 46.9686 23.5154 47.5307 24.4254C47.7448 24.7734 48.066 25.0946 48.4408 25.3355C49.3776 25.9243 49.8326 26.7541 49.8861 27.8515C49.9129 28.253 50.02 28.6813 50.1806 29.0292C50.7159 30.0196 50.7159 30.9832 50.1806 31.9735C50.0467 32.2144 49.8861 32.5089 49.8861 32.8033C49.9129 34.0613 49.4311 35.0784 48.1999 35.7208ZM42.338 37.1127C42.6057 37.0324 42.8466 36.9788 43.0607 36.8718C43.6496 36.497 44.292 36.3364 44.9879 36.3364C45.55 36.3632 45.9515 36.1223 46.2192 35.6138C46.5403 34.9981 46.9954 34.5431 47.611 34.2487C48.1196 33.981 48.3337 33.5527 48.3069 33.0174C48.2802 32.3483 48.4408 31.7326 48.7887 31.1973C49.1099 30.7155 49.0296 30.2337 48.8155 29.7252C48.5746 29.1631 48.414 28.5474 48.3337 27.9586C48.2802 27.3697 48.0393 26.9682 47.5842 26.6203C47.1024 26.2455 46.6474 25.8173 46.2727 25.3355C45.9247 24.8537 45.55 24.5593 44.9344 24.586C44.2652 24.6128 43.6764 24.4522 43.1143 24.0775C42.6325 23.783 42.1507 23.783 41.6956 24.0775C41.1336 24.4254 40.5179 24.6128 39.8755 24.5593C39.2867 24.5325 38.8317 24.8002 38.564 25.3355C38.2696 25.9243 37.8145 26.3258 37.2524 26.647C36.7439 26.9147 36.5565 27.343 36.503 27.9318C36.4494 28.5474 36.2889 29.1631 36.0212 29.6984C35.7803 30.2605 35.7803 30.7155 36.0212 31.2776C36.2621 31.8129 36.4227 32.4286 36.4762 33.0174C36.5298 33.6063 36.7439 34.0078 37.2257 34.3557C37.7075 34.7305 38.1625 35.1587 38.5372 35.6673C38.912 36.1758 39.3134 36.39 39.9291 36.4435C40.4912 36.497 41.0533 36.7112 41.6153 36.8985C41.8295 36.8718 42.0704 37.0056 42.338 37.1127ZM37.6807 37.0859C37.1989 38.1298 36.7171 39.0934 36.2086 40.164C36.6368 40.0837 36.9312 40.057 37.2257 40.0034C38.0287 39.8696 38.2696 39.9767 38.6978 40.6726C38.9119 40.9938 39.0993 41.3417 39.367 41.7165C39.9291 40.5388 40.4644 39.4146 41.0265 38.2101C40.5982 38.103 40.2235 37.9424 39.8755 37.9157C39.0725 37.8889 38.3499 37.7015 37.6807 37.0859ZM47.0757 37.0859C46.4065 37.7015 45.6838 37.9157 44.8541 37.9157C44.4793 37.9157 44.1314 38.103 43.7031 38.2101C44.292 39.4413 44.8005 40.512 45.3626 41.6897C45.6303 41.2614 45.8712 40.9135 46.0586 40.5655C46.353 40.0302 46.7812 39.8428 47.3701 39.9499C47.7181 40.0034 48.0928 40.057 48.5211 40.1373C48.0393 39.0934 47.5842 38.1298 47.0757 37.0859Z" fill="white"/>
<path d="M48.521 9.78435C46.808 9.46315 45.5767 8.5531 44.9075 6.94712C44.8005 6.65269 44.7737 6.22443 44.5596 6.11736C44.2919 5.95677 43.8904 6.06383 43.5425 6.06383C32.3809 6.06383 21.1926 6.06383 10.0311 6.06383C9.81692 6.06383 9.57602 6.06383 9.33513 6.06383C8.85333 8.04454 7.64885 9.27579 5.66814 9.75758C5.66814 16.1547 5.66814 22.5519 5.66814 28.949C7.64885 29.404 8.85333 30.6353 9.33513 32.6428C9.54926 32.6428 9.76339 32.6428 9.95075 32.6428C17.1241 32.6428 24.2975 32.6428 31.4976 32.6428C31.7118 32.6428 31.9527 32.6428 32.1668 32.6963C32.5415 32.8034 32.7556 33.0978 32.7021 33.4725C32.6753 33.874 32.4344 34.1149 32.0329 34.1684C31.8724 34.1952 31.7118 34.1952 31.5512 34.1952C24.0834 34.1952 16.5888 34.1952 9.121 34.1952C8.15741 34.1952 7.91651 34.0078 7.72915 33.0175C7.46149 31.5989 6.60497 30.7424 5.18635 30.4747C4.22276 30.3141 4.0354 30.0464 4.0354 29.0828C4.0354 22.5786 4.0354 16.0744 4.0354 9.57022C4.0354 8.57986 4.22276 8.33897 5.18635 8.17837C6.63173 7.91071 7.48825 7.05418 7.75592 5.6088C7.91651 4.67198 8.15741 4.48462 9.121 4.48462C21.0052 4.48462 32.8895 4.48462 44.7737 4.48462C45.7373 4.48462 46.005 4.72552 46.1656 5.66234C46.3797 7.08095 47.3433 7.991 48.7619 8.20514C49.8861 8.36573 50.0734 8.5531 50.0734 9.73081C50.0734 14.0402 50.0734 18.3496 50.0734 22.6322C50.0734 22.8195 50.1002 22.9801 50.0467 23.1407C49.9664 23.569 49.7255 23.8367 49.2704 23.8367C48.8154 23.8367 48.5745 23.569 48.4942 23.1407C48.4675 22.9801 48.4675 22.7928 48.4675 22.6322C48.4675 18.5637 48.4675 14.4684 48.4675 10.4C48.521 10.2126 48.521 10.0252 48.521 9.78435Z" fill="white"/>
<path d="M27.0277 11.4171C22.1295 11.4171 17.2313 11.4171 12.333 11.4171C12.1457 11.4171 11.9583 11.4171 11.7709 11.3903C11.3694 11.3368 11.1018 11.0959 11.075 10.6676C11.0483 10.2394 11.2891 9.97169 11.6906 9.89139C11.8512 9.86462 12.0386 9.86462 12.1992 9.86462C22.1027 9.86462 32.033 9.86462 41.9366 9.86462C42.0972 9.86462 42.2845 9.86462 42.4451 9.89139C42.8466 9.99846 43.0875 10.2661 43.0607 10.6676C43.034 11.0959 42.7931 11.3368 42.3648 11.3903C42.1775 11.4171 41.9901 11.4171 41.8027 11.4171C36.9045 11.4171 31.9527 11.4171 27.0277 11.4171Z" fill="white"/>
<path d="M27.0278 19.9822C22.1028 19.9822 17.2045 19.9822 12.2795 19.9822C11.423 19.9822 11.0483 19.7413 11.0751 19.1792C11.0751 18.6439 11.4498 18.403 12.2528 18.403C22.1295 18.403 32.0063 18.403 41.8831 18.403C42.0169 18.403 42.1507 18.403 42.3113 18.403C42.7396 18.4297 43.034 18.6706 43.0876 19.0989C43.1411 19.5271 42.8734 19.8483 42.3916 19.9286C42.2043 19.9554 42.0169 19.9554 41.8295 19.9554C36.8778 19.9822 31.9528 19.9822 27.0278 19.9822Z" fill="white"/>
<path d="M30.9624 15.6729C27.3221 15.6729 23.6819 15.6729 20.0417 15.6729C19.8543 15.6729 19.667 15.6729 19.4796 15.6461C19.0514 15.539 18.8105 15.2714 18.8372 14.8163C18.864 14.3881 19.1317 14.1739 19.5599 14.1204C19.7205 14.0937 19.8811 14.1204 20.0417 14.1204C27.3489 14.1204 34.6293 14.1204 41.9365 14.1204C42.0704 14.1204 42.2042 14.1204 42.3648 14.1204C42.7931 14.1472 43.0875 14.3881 43.141 14.8163C43.1946 15.2446 42.9269 15.5658 42.4451 15.6461C42.2845 15.6729 42.0971 15.6729 41.9365 15.6729C38.2428 15.6996 34.6026 15.6729 30.9624 15.6729Z" fill="white"/>
<path d="M27.1348 23.9436C28.7408 23.9436 30.3736 23.9436 31.9795 23.9436C32.1401 23.9436 32.381 23.89 32.4881 23.9971C32.729 24.1845 33.0234 24.4521 33.0502 24.693C33.0502 24.9339 32.7825 25.2283 32.5416 25.4425C32.4078 25.5495 32.1401 25.5228 31.926 25.5228C28.6605 25.5228 25.4218 25.5228 22.1563 25.5228C22.0225 25.5228 21.8886 25.5228 21.728 25.5228C21.273 25.4692 20.9786 25.1213 21.0053 24.693C21.0589 24.2648 21.2998 23.9971 21.7548 23.9703C21.9422 23.9436 22.1295 23.9703 22.3169 23.9703C23.9764 23.9436 25.5556 23.9436 27.1348 23.9436Z" fill="white"/>
<path d="M13.9123 14.1205C14.5547 14.1205 15.1971 14.1205 15.8395 14.1205C16.3748 14.1205 16.7228 14.4417 16.696 14.8967C16.696 15.325 16.3748 15.6729 15.8663 15.6729C14.528 15.6997 13.1896 15.6997 11.8513 15.6729C11.3428 15.6729 11.0483 15.325 11.0483 14.8967C11.0483 14.4417 11.3695 14.1472 11.9049 14.1205C12.6008 14.1205 13.2699 14.1205 13.9123 14.1205Z" fill="white"/>
<path d="M47.1829 30.4211C47.1829 33.0977 45.0416 35.239 42.3382 35.2926C39.7151 35.3461 37.4399 33.071 37.4399 30.4211C37.4399 27.7712 39.7151 25.4961 42.3382 25.5496C45.0416 25.6032 47.1829 27.7712 47.1829 30.4211ZM45.6037 30.4479C45.6304 28.6278 44.1851 27.1556 42.3649 27.1288C40.5716 27.0753 39.0192 28.6278 39.0192 30.4479C39.0192 32.2412 40.5181 33.7401 42.3114 33.7401C44.1048 33.7401 45.6037 32.268 45.6037 30.4479Z" fill="white"/>
</svg>
