<svg width="16" height="12" viewBox="0 0 16 12" fill="none" xmlns="http://www.w3.org/2000/svg">
<path d="M16 1.30027C16 4.43058 16 7.56089 16 10.6997C15.992 10.7168 15.984 10.7253 15.976 10.7424C15.7679 11.5953 15.2796 11.9962 14.4632 11.9962C10.9415 11.9962 7.41971 11.9962 3.90595 11.9962C3.07354 11.9962 2.24112 12.0047 1.4087 11.9962C0.872436 11.9877 0.456228 11.7318 0.192096 11.2371C0.104052 11.075 0.064032 10.8789 0 10.6997C0 7.56942 0 4.43911 0 1.30027C0.008004 1.28321 0.016008 1.27468 0.016008 1.25762C0.24012 0.379087 0.712356 0.00379087 1.56078 0.00379087C4.95448 0.00379087 8.34817 0.00379087 11.7499 0.00379087C12.6943 0.00379087 13.6468 -0.00473859 14.5913 0.00379087C15.1916 0.0123203 15.6238 0.319381 15.8799 0.890854C15.928 1.0188 15.96 1.1638 16 1.30027ZM14.3592 1.05291C14.3512 1.04438 14.3432 1.02733 14.3352 1.0188C10.1091 1.0188 5.87494 1.0188 1.64882 1.0188C1.66483 1.08703 1.71286 1.11262 1.74487 1.14674C3.68184 3.21087 5.61881 5.28353 7.54777 7.34765C7.85193 7.67177 8.14007 7.67177 8.44422 7.34765C9.83692 5.86353 11.2216 4.37087 12.6143 2.88675C13.1906 2.27263 13.7749 1.66704 14.3592 1.05291ZM1.61681 10.9812C5.88294 10.9812 10.1091 10.9812 14.3672 10.9812C13.0145 9.54825 11.6778 8.14089 10.3412 6.73353C10.3092 6.76765 10.2691 6.80177 10.2291 6.84442C9.83692 7.26236 9.45273 7.6803 9.06053 8.09825C8.44422 8.74649 7.53177 8.74649 6.92346 8.09825C6.68334 7.85089 6.45123 7.59501 6.21911 7.33912C6.02701 7.13442 5.82691 6.92118 5.64282 6.725C4.30615 8.14942 2.97749 9.54825 1.61681 10.9812ZM0.936468 10.2306C2.26513 8.83178 3.60981 7.41589 4.95448 5.99147C3.60981 4.57558 2.27314 3.15969 0.936468 1.75233C0.936468 4.57558 0.936468 7.42442 0.936468 10.2306ZM15.0555 10.2391C15.0555 7.42442 15.0555 4.57558 15.0555 1.76086C13.7269 3.15969 12.3902 4.57558 11.0455 6C12.3822 7.41589 13.7269 8.83178 15.0555 10.2391Z" fill="white"/>
</svg>
