<svg width="17" height="15" viewBox="0 0 17 15" fill="none" xmlns="http://www.w3.org/2000/svg">
<path d="M0 7.2545C0.0485722 6.94687 0.0890491 6.63925 0.145717 6.33972C0.291433 5.61114 0.599057 4.94732 1.0524 4.36445C1.16573 4.21873 1.18192 4.07302 1.19002 3.88682C1.20621 3.30396 1.23859 2.72109 1.30335 2.13822C1.38431 1.45821 1.58669 0.802489 1.84574 0.162955C1.90241 0.0172381 1.98337 0.00104735 2.12099 0.0172381C2.94671 0.130573 3.72387 0.413911 4.44436 0.826775C4.93008 1.10202 5.39961 1.40155 5.87724 1.69298C5.98248 1.75774 6.08772 1.79012 6.21724 1.76584C7.48822 1.57155 8.76728 1.56345 10.0383 1.77393C10.1111 1.78203 10.2083 1.76584 10.273 1.72536C10.694 1.4744 11.123 1.23154 11.5278 0.964396C12.2159 0.50296 12.9688 0.235813 13.7783 0.0820011C13.9078 0.057715 14.0374 0.0172381 14.1669 0.00104737C14.2155 -0.007048 14.2883 0.0334289 14.3045 0.0658103C14.6283 0.786298 14.8469 1.53917 14.9279 2.32442C14.9845 2.85871 14.9764 3.39301 15.025 3.9273C15.0412 4.0973 15.106 4.2754 15.2031 4.42112C15.6807 5.09303 15.9884 5.83781 16.1179 6.64735C16.1503 6.84973 16.1745 7.05211 16.1988 7.2545C16.1988 7.57831 16.1988 7.91022 16.1988 8.23404C16.1907 8.28261 16.1745 8.32309 16.1665 8.37166C16.0693 8.96262 16.0045 9.56168 15.8669 10.1445C15.5755 11.3589 14.9521 12.3627 13.924 13.1074C12.9121 13.836 11.7626 14.1679 10.5402 14.2408C9.75492 14.2894 8.96967 14.2813 8.18442 14.2813C7.02678 14.2813 5.86105 14.2975 4.7196 14.1194C3.44863 13.9251 2.36385 13.3827 1.49764 12.4112C0.631439 11.4398 0.259052 10.266 0.0971444 9.0031C0.064763 8.73595 0.0323815 8.4688 0 8.20166C0 7.88594 0 7.57022 0 7.2545ZM13.9078 0.648677C13.3169 0.770107 12.7502 0.899633 12.2402 1.20726C11.7059 1.53107 11.1716 1.84679 10.6454 2.1787C10.3864 2.34061 10.1354 2.38109 9.83587 2.33251C8.7349 2.15442 7.63393 2.13822 6.53296 2.30823C6.10391 2.37299 5.73962 2.30823 5.36723 2.06537C4.80055 1.70107 4.20959 1.37726 3.61053 1.06154C3.19767 0.842966 2.74433 0.71344 2.2748 0.632486C2.23432 0.762012 2.19384 0.875347 2.15337 0.996778C1.86193 1.94394 1.70812 2.90728 1.76479 3.89492C1.78098 4.20254 1.70812 4.44541 1.52193 4.68827C1.00383 5.36828 0.720488 6.15353 0.623343 7.01164C0.518104 8.03165 0.623343 9.03548 0.890491 10.015C1.34383 11.6908 2.38004 12.8403 4.06388 13.3584C4.85722 13.6013 5.68295 13.6498 6.50058 13.6579C7.70679 13.6741 8.913 13.6741 10.1192 13.666C11.0583 13.6579 11.965 13.4636 12.8231 13.0589C13.924 12.5408 14.685 11.707 15.106 10.5655C15.3812 9.82073 15.5431 9.04357 15.5674 8.25023C15.5836 7.70784 15.5593 7.15735 15.4945 6.61496C15.4055 5.91067 15.0979 5.28732 14.685 4.72065C14.515 4.47779 14.3936 4.21873 14.4098 3.91111C14.4421 3.36063 14.3936 2.81824 14.3126 2.27585C14.2478 1.71727 14.1183 1.18297 13.9078 0.648677Z" fill="white"/>
<path d="M8.15642 6.16145C9.22501 6.12907 10.3098 6.09669 11.4027 6.0724C12.4146 6.04812 13.1432 6.53384 13.6775 7.36766C14.1551 8.10434 14.2441 8.92197 14.1065 9.76389C14.0256 10.2658 13.896 10.7515 13.6127 11.1887C13.2322 11.7796 12.6898 12.1358 12.0341 12.3544C11.0465 12.6782 10.0264 12.8239 8.99024 12.8239C8.06737 12.8239 7.1364 12.8077 6.21353 12.7592C5.41209 12.7106 4.61874 12.5487 3.86587 12.233C2.89443 11.8201 2.38442 11.0511 2.20632 10.0472C2.10918 9.48865 2.0606 8.93007 2.15775 8.36339C2.36823 7.18956 3.32348 6.0805 4.79684 6.11288C5.914 6.13717 7.02307 6.14526 8.15642 6.16145ZM8.1807 6.75241V6.74432C7.75165 6.74432 7.3145 6.75241 6.88544 6.74432C6.44829 6.73622 6.01114 6.70384 5.57399 6.70384C5.16113 6.70384 4.74827 6.68765 4.3435 6.75241C3.39634 6.89813 2.86205 7.75624 2.74062 8.49292C2.63538 9.12436 2.71633 9.7396 2.89443 10.3468C3.06443 10.9296 3.42063 11.3587 3.97111 11.6258C4.65112 11.9496 5.37971 12.1115 6.11638 12.152C7.06354 12.2087 8.0107 12.2168 8.95786 12.233C9.9293 12.2411 10.8765 12.1115 11.8074 11.8201C12.5846 11.5773 13.1351 11.1077 13.386 10.3144C13.5398 9.82056 13.6208 9.31865 13.5641 8.80054C13.4913 8.08815 13.1755 7.50528 12.6251 7.06004C12.277 6.7686 11.856 6.64717 11.4027 6.66336C10.326 6.68765 9.24929 6.72003 8.1807 6.75241Z" fill="white"/>
<path d="M3.80481 8.88352C3.821 8.37351 3.96672 7.90398 4.3391 7.53159C4.93007 6.94063 5.81246 6.9973 6.32247 7.66921C6.93772 8.46256 6.84867 9.6121 6.13628 10.3002C5.65055 10.7616 4.8734 10.7535 4.38768 10.2921C3.991 9.91163 3.821 9.434 3.80481 8.88352ZM4.39577 8.82685C4.39577 9.17495 4.46863 9.4421 4.63054 9.67687C4.94626 10.1464 5.50484 10.1788 5.86913 9.74163C6.2739 9.25591 6.24152 8.40589 5.80437 7.95255C5.49674 7.63683 5.0434 7.63683 4.74387 7.95255C4.49292 8.2116 4.39577 8.53542 4.39577 8.82685Z" fill="white"/>
<path d="M12.4811 8.88596C12.4649 9.43644 12.2868 9.91407 11.882 10.3026C11.4125 10.7479 10.6434 10.756 10.1739 10.3188C9.34006 9.54978 9.34816 8.19785 10.182 7.43688C10.6515 7.00783 11.4125 7.02402 11.882 7.46117C12.2868 7.84975 12.4649 8.33547 12.4811 8.88596ZM10.1334 8.83738C10.1334 9.16929 10.2144 9.45263 10.3601 9.67121C10.6839 10.1488 11.2344 10.1812 11.6068 9.74406C12.0034 9.26644 11.9711 8.40023 11.542 7.95499C11.2344 7.63927 10.7891 7.63927 10.4815 7.96308C10.2306 8.21404 10.1415 8.53785 10.1334 8.83738Z" fill="white"/>
</svg>
