<svg width="17" height="16" viewBox="0 0 17 16" fill="none" xmlns="http://www.w3.org/2000/svg">
<path d="M3.8534 1.91866C3.8534 2.97915 2.99529 3.86155 1.94289 3.86964C0.882395 3.87774 0 2.99534 0 1.92675C0 0.874357 0.858109 0.00815218 1.91051 5.68103e-05C2.971 -0.00803856 3.8453 0.85007 3.8534 1.91866Z" fill="white"/>
<path d="M0.323792 4.93823C1.43286 4.93823 2.52573 4.93823 3.6267 4.93823C3.6267 8.50019 3.6267 12.0541 3.6267 15.616C2.52573 15.616 1.42476 15.616 0.323792 15.616C0.323792 12.0541 0.323792 8.50829 0.323792 4.93823Z" fill="white"/>
<path d="M9.13968 15.644C8.02252 15.644 6.93774 15.644 5.82867 15.644C5.82867 12.0821 5.82867 8.52819 5.82867 4.95813C6.87298 4.95813 7.91728 4.95813 8.99396 4.95813C8.99396 5.42766 8.99396 5.90529 8.99396 6.39911C9.03444 6.37482 9.05873 6.36672 9.06682 6.35863C9.76302 5.23337 10.8073 4.73955 12.1026 4.69908C12.8393 4.67479 13.5598 4.76384 14.2398 5.08766C15.1141 5.50052 15.6079 6.22101 15.875 7.12769C16.0936 7.84818 16.1665 8.58485 16.1746 9.32963C16.1907 11.3939 16.1826 13.4502 16.1826 15.5145C16.1826 15.5469 16.1746 15.5793 16.1746 15.6197C15.0736 15.6197 13.9807 15.6197 12.8555 15.6197C12.8555 15.5469 12.8555 15.474 12.8555 15.4012C12.8555 13.6526 12.8635 11.904 12.8474 10.1554C12.8474 9.75868 12.815 9.36201 12.7421 8.97343C12.5397 7.88056 11.8273 7.50817 10.8073 7.6296C9.87636 7.74294 9.36635 8.28533 9.22063 9.28915C9.16397 9.65344 9.14778 10.0258 9.13968 10.3982C9.13158 12.0659 9.13968 13.7416 9.13968 15.4092C9.13968 15.4659 9.13968 15.5469 9.13968 15.644Z" fill="white"/>
</svg>
