<svg width="48" height="48" viewBox="0 0 48 48" fill="none" xmlns="http://www.w3.org/2000/svg">
<path d="M23.6729 0C23.9152 0 24.1817 0 24.424 0C24.739 0.145252 25.054 0.290504 25.3448 0.435756C32.3473 3.94601 39.3498 7.43206 46.3766 10.9423C47.0066 11.257 47.6123 11.5959 48 12.2012C48 12.7095 48 13.1937 48 13.7021C47.6123 14.3557 46.9823 14.6704 46.3523 14.9852C44.1959 16.0503 42.0151 17.1397 39.8587 18.2291C39.7133 18.3017 39.5679 18.3744 39.3741 18.4954C39.5679 18.5922 39.689 18.6649 39.8102 18.7375C41.9909 19.8269 44.1716 20.9163 46.3523 21.9815C47.0066 22.2962 47.6123 22.6351 48 23.2645C48 23.7729 48 24.2571 48 24.7654C47.6123 25.4191 46.9823 25.7338 46.3523 26.0485C44.1959 27.1137 42.0151 28.2031 39.8587 29.2925C39.7133 29.3651 39.5679 29.4377 39.3741 29.5588C39.5679 29.6556 39.689 29.7282 39.8102 29.8008C41.9909 30.8902 44.1716 31.9796 46.3523 33.0448C47.0066 33.3595 47.6123 33.6984 48 34.3279C48 34.8362 48 35.3204 48 35.8288C47.6365 36.1677 47.3216 36.6035 46.8854 36.8214C39.6406 40.4769 32.3715 44.0839 25.1025 47.7395C24.3756 48.1026 23.7214 48.0784 22.9944 47.7152C20.3291 46.3596 17.6638 45.0523 14.9985 43.6966C10.419 41.421 5.86371 39.1212 1.2842 36.8456C0.775366 36.6035 0.363453 36.2646 0.145381 35.732C-0.218072 34.7878 0.193841 33.8195 1.13882 33.3353C3.51338 32.1491 5.88793 30.9629 8.26249 29.7766C8.40787 29.704 8.55326 29.6314 8.7471 29.5103C8.5048 29.3893 8.35941 29.3167 8.21403 29.244C5.88794 28.082 3.58607 26.92 1.25997 25.7822C0.751136 25.5401 0.339223 25.2012 0.145381 24.6444C-0.193841 23.7003 0.218072 22.7561 1.18728 22.272C3.51338 21.1099 5.86371 19.9237 8.23826 18.7617C8.38364 18.6891 8.52903 18.6164 8.72287 18.4954C8.5048 18.3744 8.35941 18.3017 8.21403 18.2291C5.91217 17.0671 3.6103 15.9051 1.2842 14.7673C0.508834 14.3799 0 13.8473 0 12.9758C0 12.1043 0.484604 11.5475 1.25997 11.1602C5.54871 9.02983 9.81323 6.89947 14.102 4.7691C17.2761 3.17133 20.4745 1.59777 23.6729 0ZM41.9667 12.9758C41.7971 12.879 41.7002 12.8064 41.6032 12.7822C35.8607 9.90134 30.1181 7.04472 24.3756 4.16389C24.109 4.01864 23.891 4.06705 23.6244 4.1881C17.9546 7.02051 12.2362 9.87713 6.54215 12.7337C6.421 12.8064 6.29985 12.879 6.13024 12.9758C6.27562 13.0485 6.34831 13.0969 6.44523 13.1453C12.212 16.0261 17.9546 18.907 23.7214 21.7878C24.0121 21.933 24.206 21.8604 24.4725 21.7394C28.2524 19.8511 32.0081 17.9628 35.788 16.0745C37.7991 15.0578 39.8344 14.041 41.9667 12.9758ZM6.10601 24.015C6.25139 24.1118 6.32408 24.136 6.39677 24.1844C12.1878 27.0653 17.9546 29.9703 23.7456 32.8511C23.9152 32.948 24.206 32.9238 24.3756 32.8269C30.1181 29.9703 35.8607 27.0895 41.6032 24.2329C41.7002 24.1844 41.7971 24.1118 41.9425 24.015C39.7617 22.9256 37.6537 21.8846 35.5457 20.8194C35.2307 20.65 34.9884 20.65 34.6734 20.8194C31.4992 22.4172 28.3009 23.9908 25.1267 25.6127C24.3513 26.0001 23.6729 26.0001 22.8975 25.6127C19.7234 23.9908 16.525 22.4172 13.3508 20.8194C13.0601 20.6742 12.8178 20.6742 12.527 20.8194C11.8001 21.2068 11.0732 21.5457 10.3463 21.9088C8.96517 22.5867 7.58405 23.2887 6.10601 24.015ZM6.10601 35.0783C6.25139 35.1752 6.32408 35.1994 6.39677 35.2478C12.1878 38.1286 17.9546 41.0337 23.7456 43.9145C23.9152 43.9871 24.206 43.9871 24.3756 43.8903C30.1181 41.0337 35.8364 38.177 41.5548 35.3204C41.6759 35.272 41.7728 35.1994 41.9425 35.1025C39.7617 34.0132 37.6295 32.9722 35.5457 31.907C35.2307 31.7375 34.9884 31.7375 34.6734 31.907C31.4992 33.5048 28.3009 35.0783 25.1267 36.7003C24.3513 37.0876 23.6729 37.0876 22.8975 36.7003C19.7234 35.1025 16.5492 33.529 13.3993 31.9312C13.0601 31.7617 12.8178 31.7617 12.5028 31.9312C11.8001 32.3185 11.0732 32.6575 10.3705 32.9964C8.96517 33.65 7.58405 34.3521 6.10601 35.0783Z" fill="white"/>
</svg>
