<svg width="38" height="48" viewBox="0 0 38 48" fill="none" xmlns="http://www.w3.org/2000/svg">
<path d="M24.3332 0C25.4571 0.6 25.6484 1.2 25.0984 2.352C23.1854 6.336 24.1419 10.656 27.657 13.56C28.5178 14.28 29.4743 14.856 30.3829 15.528C33.7784 18 36.2175 21.192 37.4609 25.248C38.1543 27.48 38.1065 29.736 37.7239 32.016C36.7914 37.416 34.0176 41.664 29.546 44.76C26.7962 46.656 23.7115 47.712 20.3638 47.928C20.2204 47.928 20.1008 47.976 19.9573 48C19.24 48 18.5226 48 17.8053 48C17.2553 47.928 16.7292 47.88 16.2032 47.784C9.67519 46.584 4.86889 43.008 1.92772 37.032C-0.439567 32.232 -0.630864 27.288 1.37774 22.296C1.99945 20.736 2.83637 19.296 4.27109 18.36C4.82106 18 5.46668 17.784 6.11231 17.664C7.14052 17.472 7.85788 18.24 7.76223 19.272C7.59485 21 7.57094 22.704 7.92962 24.408C8.097 25.2 8.36003 25.992 8.71871 26.736C9.05348 27.456 9.6991 27.744 10.4882 27.672C10.8469 27.648 11.0143 27.48 10.9903 27.144C10.9425 26.328 10.9186 25.512 10.7751 24.72C10.1534 21.432 9.86648 18.096 9.98604 14.736C10.0817 12.12 10.4165 9.552 11.5403 7.128C13.2142 3.384 16.1553 1.2 20.1486 0.384C21.0095 0.216 21.8703 0.12 22.7311 0C23.2572 0 23.8072 0 24.3332 0ZM4.79715 21.768C4.62977 22.032 4.51021 22.2 4.43847 22.368C2.52551 26.088 2.35813 29.952 3.62547 33.864C4.72541 37.248 6.73402 39.984 9.62737 42.072C13.6446 44.952 18.0922 45.96 22.8507 44.688C29.4743 42.936 33.4915 38.544 34.9262 31.8C35.4284 29.448 35.3088 27.12 34.3762 24.864C33.0133 21.648 30.8134 19.2 27.9678 17.256C26.8679 16.512 25.7918 15.72 24.8593 14.808C21.8942 11.856 20.7942 8.28 21.6073 4.152C21.679 3.792 21.7507 3.408 21.8464 3C21.679 3.024 21.5594 3 21.4638 3.024C21.1051 3.096 20.7464 3.144 20.4117 3.216C17.6857 3.84 15.5814 5.28 14.2902 7.776C13.4055 9.48 12.999 11.328 12.8555 13.224C12.6164 16.608 12.7598 19.968 13.3576 23.304C13.5968 24.624 13.7163 25.968 13.7641 27.288C13.788 28.44 13.2859 29.424 12.2338 30C10.4643 30.984 8.00135 30.432 6.75793 28.848C5.80145 27.624 5.34713 26.184 5.10801 24.672C4.94062 23.76 4.8928 22.824 4.79715 21.768Z" fill="white"/>
</svg>
