<svg width="51" height="54" viewBox="0 0 51 54" fill="none" xmlns="http://www.w3.org/2000/svg">
<path d="M29.3063 0.779175C30.3914 1.06854 31.5007 1.30968 32.5617 1.62316C36.0582 2.70828 39.1689 4.46858 41.9178 6.87996C44.8356 9.43602 47.0782 12.4985 48.6456 16.0673C49.4654 17.9241 50.0201 19.8532 50.4059 21.8546C50.43 21.9511 50.4782 22.0716 50.5023 22.1681C50.5023 22.2646 50.5023 22.361 50.5023 22.4575L50.4782 22.4816C50.1889 23.3015 49.7066 23.6873 49.0796 23.639C48.308 23.5908 47.8498 23.1568 47.681 22.2404C47.0541 18.8645 45.7519 15.7538 43.7505 12.9808C41.1221 9.33957 37.7461 6.5906 33.5503 4.92675C32.0794 4.34802 30.5361 4.01042 29.017 3.57637C28.1489 3.33524 27.6907 2.97353 27.6184 2.32246C27.546 1.64727 27.8354 1.18911 28.6552 0.779175C28.8723 0.779175 29.0893 0.779175 29.3063 0.779175Z" fill="white"/>
<path d="M28.8963 9.53247C29.4992 9.70127 30.4155 9.87006 31.2836 10.1835C36.9744 12.3056 40.4709 16.3808 41.7007 22.3369C41.8695 23.1085 41.4355 23.8319 40.7121 24.0249C39.9886 24.2178 39.2893 23.7837 39.0482 23.0121C38.7347 21.9752 38.5177 20.8659 38.0837 19.8773C36.1787 15.7297 32.9715 13.1978 28.4864 12.2814C27.6665 12.1126 27.2325 11.6063 27.2566 10.8828C27.2325 10.1112 27.8353 9.53247 28.8963 9.53247Z" fill="white"/>
<path d="M0.97168 18.5513C1.04402 17.9966 1.09225 17.442 1.1887 16.8874C1.45396 15.5129 2.08091 14.3072 3.04547 13.2945C4.34761 11.9682 5.60153 10.5937 7.00013 9.38802C9.12214 7.53126 11.4371 7.55538 13.4626 9.46036C15.6329 11.4859 17.7308 13.632 19.7563 15.8264C21.2755 17.442 21.2514 19.9257 19.7804 21.5896C18.6953 22.8194 17.4896 23.9528 16.3322 25.1343C16.1151 25.3513 16.0669 25.496 16.2116 25.8095C17.3691 28.1727 19.0329 30.1741 20.8173 32.0791C22.65 34.0323 24.6514 35.7926 26.9181 37.2153C27.5692 37.6253 28.2444 37.9629 28.9678 38.3728C29.8359 37.4806 30.6799 36.5884 31.5721 35.7444C32.2231 35.1415 32.8983 34.5146 33.6459 34.0805C35.2615 33.1883 37.2147 33.4054 38.541 34.6834C40.7594 36.8295 42.9538 38.9998 45.0758 41.2665C46.6432 42.9303 46.6673 45.4622 45.1481 47.1984C43.8219 48.7176 42.3751 50.1644 40.9282 51.563C39.819 52.6482 38.4204 53.2028 36.8771 53.4198C36.7807 53.4439 36.6601 53.468 36.5636 53.5163C35.9608 53.5163 35.3821 53.5163 34.7792 53.5163C34.6828 53.4921 34.5622 53.4439 34.4657 53.4439C33.453 53.251 32.4161 53.1304 31.4274 52.8893C27.8827 51.973 24.6755 50.3091 21.589 48.38C13.9208 43.4608 8.01291 36.9742 3.86533 28.8478C2.70787 26.5812 1.79155 24.1939 1.30927 21.6619C1.14048 20.8662 1.06813 20.0222 0.97168 19.2023C0.97168 18.9853 0.97168 18.7683 0.97168 18.5513ZM3.72065 18.9612C3.81711 19.7328 3.88945 20.5286 4.05824 21.2761C4.78166 24.6279 6.20437 27.6904 7.98879 30.584C12.7151 38.2281 18.9847 44.2324 27.0869 48.2353C29.5947 49.4651 32.199 50.4779 35.0203 50.7191C36.7565 50.8637 38.2757 50.4538 39.5055 49.1517C40.5183 48.0907 41.5793 47.0538 42.5921 45.9928C42.7368 45.824 42.8814 45.6793 43.0261 45.4864C43.6772 44.6183 43.6772 43.7261 42.9538 42.9303C42.2063 42.1104 41.4346 41.3629 40.6389 40.5671C39.4332 39.3615 38.2275 38.1317 36.9977 36.9501C36.1055 36.082 35.165 36.082 34.2487 36.9019C34.104 37.0224 33.9835 37.1671 33.8388 37.2877C32.7537 38.3728 31.6926 39.4338 30.6075 40.5189C29.8359 41.2906 28.9678 41.4352 28.0273 40.953C27.3763 40.6154 26.7011 40.2778 26.0741 39.9161C23.2287 38.2281 20.7691 36.082 18.5265 33.6465C16.5251 31.4763 14.7165 29.1854 13.5108 26.4847C12.9321 25.1826 13.0768 24.435 14.0896 23.4464C15.1747 22.4095 16.2598 21.3485 17.3208 20.2633C18.4301 19.13 18.4059 18.2378 17.2967 17.0803C16.4286 16.1881 15.5123 15.2959 14.6442 14.4037C13.6796 13.4391 12.7151 12.4505 11.7505 11.51C10.7619 10.5455 9.79733 10.5214 8.76043 11.4377C8.63986 11.5342 8.54341 11.6547 8.42284 11.7753C7.45829 12.7398 6.51785 13.7285 5.52919 14.6689C4.27527 15.8505 3.69654 17.2732 3.72065 18.9612Z" fill="white"/>
</svg>
